# xmcd
#
# Track frame offsets: 
#        150
#        21097
#        36751
#        57168
#        77879
#        88258
#        95870
#        104490
#        114250
#        136656
#        152742
#        169046
#        189064
#        205456
#        221472
#        236416
#        260238
#
# Disc length: 3821 seconds
#
# Revision: 0
# Processed by: cddbd v1.5.1PL2 Copyright (c) Steve Scherf et al.
# Submitted via: ExactAudioCopy v0.95b4
#
DISCID=e60eeb11
DTITLE=Alaska - 1991-1994 - Demos
DYEAR=1991
DGENRE=Progressive Rock
TTITLE0=Kashmir
TTITLE1=Point Of Know Return
TTITLE2=Cliffs Of Dover
TTITLE3=Cliffs Of Dover (alt take)
TTITLE4=Kashmir (demo version)
TTITLE5=Point Of Know Return (demo version)
TTITLE6=Tom Sawyer (demo version)
TTITLE7=Cliffs Of Dover (demo version)
TTITLE8=Hunger
TTITLE9=Sold Me Out Again
TTITLE10=For The Moment
TTITLE11=Reaching For The Light
TTITLE12=What's Wrong
TTITLE13=Seasonal Changes
TTITLE14=For The Moment
TTITLE15=Hunger
TTITLE16=Every Word Every Deed
EXTD=
EXTT0=
EXTT1=
EXTT2=
EXTT3=
EXTT4=
EXTT5=
EXTT6=
EXTT7=
EXTT8=
EXTT9=
EXTT10=
EXTT11=
EXTT12=
EXTT13=
EXTT14=
EXTT15=
EXTT16=
PLAYORDER=
